#N canvas 827 239 527 327 12;
#X obj 124 110 r button1 @hv_param;
#X obj 363 156 r knob1 @hv_param;
#X obj 574 156 r knob2 @hv_param;
#X obj 772 156 r knob3 @hv_param;
#X obj 149 243 noise~;
#X obj 149 278 *~ 0.5;
#X obj 149 313 hip~ 4000;
#X obj 149 453 *~;
#X obj 149 499 *~ 1;
#X obj 159 555 dac~;
#X obj 299 375 line;
#X floatatom 299 411 5 0 0 0 - - - 0;
#X msg 300 242 1 5;
#X obj 445 243 delay 5;
#X obj 452 282 bng 25 250 50 0 empty empty empty 17 7 0 10 #e4e4e4 #4d4d4d #373737;
#X obj 539 359 bng 25 250 50 0 empty empty empty 17 7 0 10 #e4e4e4 #4d4d4d #373737;
#X msg 444 322 0.5 100;
#X obj 539 322 delay 100;
#X msg 539 409 0 150;
#X connect 0 0 12 0;
#X connect 0 0 13 0;
#X connect 4 0 5 0;
#X connect 5 0 6 0;
#X connect 6 0 7 0;
#X connect 7 0 8 0;
#X connect 8 0 9 1;
#X connect 8 0 9 0;
#X connect 10 0 11 0;
#X connect 11 0 7 1;
#X connect 12 0 10 0;
#X connect 13 0 14 0;
#X connect 14 0 16 0;
#X connect 14 0 17 0;
#X connect 15 0 18 0;
#X connect 16 0 10 0;
#X connect 17 0 15 0;
#X connect 18 0 10 0;
