#N canvas 827 239 527 327 12;
#X obj 80 43 r button1 @hv_param;
#X obj 171 415 r knob1 @hv_param;
#X obj 168 239 r knob2 @hv_param;
#X obj 18 92 r knob3 @hv_param;
#X obj 96 121 noise~;
#X obj 105 386 *~;
#X obj 105 432 *~ 1;
#X obj 115 488 dac~;
#X obj 451 210 bng 25 250 50 0 empty empty empty 17 7 0 10 #e4e4e4 #4d4d4d #373737;
#X obj 538 287 bng 25 250 50 0 empty empty empty 17 7 0 10 #e4e4e4 #4d4d4d #373737;
#X obj 302 116 bng 25 250 50 0 empty empty empty 17 7 0 10 #e4e4e4 #4d4d4d #373737;
#X msg 299 170 1 5;
#X obj 444 171 delay 5;
#X msg 443 250 0.25 50;
#X obj 115 176 *~ 1;
#X obj 36 211 *~ 0.1;
#X obj 17 176 hip~ 8000;
#X obj 65 325 clip~ -0.9 0.9;
#X obj 115 211 bp~ 150 4;
#X obj 168 272 * 200;
#X obj 38 130 * 8000;
#X obj 152 300 clip 10 200;
#X obj 302 300 line~;
#X obj 94 261 *~ 20;
#X obj 538 250 delay 50;
#X msg 538 337 0 1200;
#X connect 0 0 10 0;
#X connect 1 0 6 1;
#X connect 2 0 19 0;
#X connect 3 0 20 0;
#X connect 4 0 16 0;
#X connect 4 0 14 0;
#X connect 5 0 6 0;
#X connect 6 0 7 1;
#X connect 6 0 7 0;
#X connect 8 0 13 0;
#X connect 8 0 24 0;
#X connect 9 0 25 0;
#X connect 10 0 11 0;
#X connect 10 0 12 0;
#X connect 11 0 22 0;
#X connect 12 0 8 0;
#X connect 13 0 22 0;
#X connect 14 0 18 0;
#X connect 15 0 17 0;
#X connect 16 0 15 0;
#X connect 17 0 5 0;
#X connect 18 0 23 0;
#X connect 19 0 21 0;
#X connect 20 0 16 1;
#X connect 21 0 23 1;
#X connect 22 0 5 1;
#X connect 23 0 17 0;
#X connect 24 0 9 0;
#X connect 25 0 22 0;
