#N canvas 827 239 527 327 12;
#X obj 248 412 dac~ 1 2;
#X obj 66 22 bng 25 250 50 0 empty empty empty 17 7 0 10 #e4e4e4 #4d4d4d #373737;
#X obj 116 22 bng 25 250 50 0 empty empty empty 17 7 0 10 #e4e4e4 #4d4d4d #373737;
#X obj 173 22 bng 25 250 50 0 empty empty empty 17 7 0 10 #e4e4e4 #4d4d4d #373737;
#X obj 223 22 bng 25 250 50 0 empty empty empty 17 7 0 10 #e4e4e4 #4d4d4d #373737;
#X obj 278 22 bng 25 250 50 0 empty empty empty 17 7 0 10 #e4e4e4 #4d4d4d #373737;
#X obj 328 22 bng 25 250 50 0 empty empty empty 17 7 0 10 #e4e4e4 #4d4d4d #373737;
#X obj 389 22 bng 25 250 50 0 empty empty empty 17 7 0 10 #e4e4e4 #4d4d4d #373737;
#X obj 439 22 bng 25 250 50 0 empty empty empty 17 7 0 10 #e4e4e4 #4d4d4d #373737;
#X obj 84 267 osc~ 440;
#X obj 547 267 bng 25 250 50 0 empty empty empty 17 7 0 10 #e4e4e4 #4d4d4d #373737;
#X obj 634 344 bng 25 250 50 0 empty empty empty 17 7 0 10 #e4e4e4 #4d4d4d #373737;
#X obj 398 173 bng 25 250 50 0 empty empty empty 17 7 0 10 #e4e4e4 #4d4d4d #373737;
#X msg 395 227 1 5;
#X obj 540 228 delay 5;
#X msg 539 307 0.25 50;
#X obj 398 357 line~;
#X obj 634 307 delay 50;
#X msg 634 394 0 1200;
#X obj 264 367 *~;
#X obj 51 162 nbx 4 18 -1e+37 1e+37 0 0 empty empty empty 0 -8 0 10 #e4e4e4 #373737 #373737 0 256;
#X obj 136 165 nbx 4 18 -1e+37 1e+37 0 0 empty empty empty 0 -8 0 10 #e4e4e4 #373737 #373737 0 256;
#X obj 199 169 nbx 4 18 -1e+37 1e+37 0 0 empty empty empty 0 -8 0 10 #e4e4e4 #373737 #373737 0 256;
#X obj 257 167 nbx 4 18 -1e+37 1e+37 0 0 empty empty empty 0 -8 0 10 #e4e4e4 #373737 #373737 0 256;
#X obj 110 213 nbx 4 18 -1e+37 1e+37 0 0 empty empty empty 0 -8 0 10 #e4e4e4 #373737 #373737 0 256;
#X obj 183 217 nbx 4 18 -1e+37 1e+37 0 0 empty empty empty 0 -8 0 10 #e4e4e4 #373737 #373737 0 256;
#X obj 247 219 nbx 4 18 -1e+37 1e+37 0 0 empty empty empty 0 -8 0 10 #e4e4e4 #373737 #373737 0 256;
#X obj 302 221 nbx 4 18 -1e+37 1e+37 0 0 empty empty empty 0 -8 0 10 #e4e4e4 #373737 #373737 0 256;
#X obj 147 87 loadbang;
#X msg 39 133 523.25;
#X msg 99 187 587.33;
#X msg 126 133 659.26;
#X msg 161 190 698.46;
#X msg 190 143 783.99;
#X msg 244 189 880;
#X msg 247 133 987.77;
#X msg 312 182 1046.5;
#X connect 1 0 12 0;
#X connect 1 0 20 0;
#X connect 2 0 12 0;
#X connect 2 0 24 0;
#X connect 3 0 12 0;
#X connect 3 0 21 0;
#X connect 4 0 12 0;
#X connect 4 0 25 0;
#X connect 5 0 12 0;
#X connect 5 0 22 0;
#X connect 6 0 12 0;
#X connect 6 0 26 0;
#X connect 7 0 12 0;
#X connect 7 0 23 0;
#X connect 8 0 12 0;
#X connect 8 0 27 0;
#X connect 9 0 19 0;
#X connect 10 0 15 0;
#X connect 10 0 17 0;
#X connect 11 0 18 0;
#X connect 12 0 13 0;
#X connect 12 0 14 0;
#X connect 13 0 16 0;
#X connect 14 0 10 0;
#X connect 15 0 16 0;
#X connect 16 0 19 1;
#X connect 17 0 11 0;
#X connect 18 0 16 0;
#X connect 19 0 0 0;
#X connect 19 0 0 1;
#X connect 20 0 9 0;
#X connect 21 0 9 0;
#X connect 22 0 9 0;
#X connect 23 0 9 0;
#X connect 24 0 9 0;
#X connect 25 0 9 0;
#X connect 26 0 9 0;
#X connect 27 0 9 0;
#X connect 28 0 29 0;
#X connect 28 0 30 0;
#X connect 28 0 31 0;
#X connect 28 0 32 0;
#X connect 28 0 33 0;
#X connect 28 0 34 0;
#X connect 28 0 35 0;
#X connect 28 0 36 0;
#X connect 29 0 20 0;
#X connect 30 0 24 0;
#X connect 31 0 21 0;
#X connect 32 0 25 0;
#X connect 33 0 22 0;
#X connect 34 0 26 0;
#X connect 35 0 23 0;
#X connect 36 0 27 0;
