#N canvas 827 239 527 327 12;
#X obj 385 404 dac~ 1 2;
#X obj 66 22 bng 25 250 50 0 empty empty empty 17 7 0 10 #e4e4e4 #4d4d4d #373737;
#X obj 116 22 bng 25 250 50 0 empty empty empty 17 7 0 10 #e4e4e4 #4d4d4d #373737;
#X obj 173 22 bng 25 250 50 0 empty empty empty 17 7 0 10 #e4e4e4 #4d4d4d #373737;
#X obj 223 22 bng 25 250 50 0 empty empty empty 17 7 0 10 #e4e4e4 #4d4d4d #373737;
#X obj 278 22 bng 25 250 50 0 empty empty empty 17 7 0 10 #e4e4e4 #4d4d4d #373737;
#X obj 328 22 bng 25 250 50 0 empty empty empty 17 7 0 10 #e4e4e4 #4d4d4d #373737;
#X obj 389 22 bng 25 250 50 0 empty empty empty 17 7 0 10 #e4e4e4 #4d4d4d #373737;
#X obj 439 22 bng 25 250 50 0 empty empty empty 17 7 0 10 #e4e4e4 #4d4d4d #373737;
#X obj 774 175 bng 25 250 50 0 empty empty empty 17 7 0 10 #e4e4e4 #4d4d4d #373737;
#X obj 861 252 bng 25 250 50 0 empty empty empty 17 7 0 10 #e4e4e4 #4d4d4d #373737;
#X obj 719 84 bng 25 250 50 0 empty empty empty 17 7 0 10 #e4e4e4 #4d4d4d #373737;
#X msg 716 138 1 5;
#X obj 767 136 delay 5;
#X msg 766 215 0.25 50;
#X obj 719 268 line~;
#X obj 861 215 delay 50;
#X obj 385 302 *~;
#X obj 77 168 nbx 6 20 -1e+37 1e+37 0 0 empty empty empty 0 -8 0 10 #e4e4e4 #373737 #373737 0 256;
#X obj 212 168 nbx 6 20 -1e+37 1e+37 0 0 empty empty empty 0 -8 0 10 #e4e4e4 #373737 #373737 0 256;
#X obj 345 168 nbx 6 20 -1e+37 1e+37 0 0 empty empty empty 0 -8 0 10 #e4e4e4 #373737 #373737 0 256;
#X obj 502 168 nbx 6 21 -1e+37 1e+37 0 0 empty empty empty 0 -8 0 10 #e4e4e4 #373737 #373737 0 256;
#X obj 150 168 nbx 5 17 -1e+37 1e+37 0 0 empty empty empty 0 -8 0 10 #e4e4e4 #373737 #373737 0 256;
#X obj 284 168 nbx 5 19 -1e+37 1e+37 0 0 empty empty empty 0 -8 0 10 #e4e4e4 #373737 #373737 0 256;
#X obj 423 168 nbx 5 20 -1e+37 1e+37 0 0 empty empty empty 0 -8 0 10 #e4e4e4 #373737 #373737 0 256;
#X obj 588 168 nbx 7 22 -1e+37 1e+37 0 0 empty empty empty 0 -8 0 10 #e4e4e4 #373737 #373737 0 256;
#X obj 512 6 loadbang;
#X msg 77 119 523.25;
#X msg 150 119 587.33;
#X msg 212 119 659.26;
#X msg 278 119 698.46;
#X msg 345 119 783.99, f 8;
#X msg 423 119 880;
#X msg 502 119 987.77;
#X msg 588 119 1046.5;
#X msg 861 302 0 1200;
#X obj 77 268 hv.osc~ saw;
#X obj 385 353 *~;
#X obj 574 323 nbx 4 18 -1e+37 1e+37 0 0 empty empty empty 0 -8 0 10 #e4e4e4 #373737 #373737 0 256;
#X obj 502 359 hv.lfo sine;
#X connect 1 0 18 0;
#X connect 1 0 11 0;
#X connect 2 0 22 0;
#X connect 2 0 11 0;
#X connect 3 0 19 0;
#X connect 3 0 11 0;
#X connect 4 0 23 0;
#X connect 4 0 11 0;
#X connect 5 0 20 0;
#X connect 5 0 11 0;
#X connect 6 0 24 0;
#X connect 6 0 11 0;
#X connect 7 0 21 0;
#X connect 7 0 11 0;
#X connect 8 0 25 0;
#X connect 8 0 11 0;
#X connect 9 0 14 0;
#X connect 9 0 16 0;
#X connect 10 0 35 0;
#X connect 11 0 12 0;
#X connect 11 0 13 0;
#X connect 12 0 15 0;
#X connect 13 0 9 0;
#X connect 14 0 15 0;
#X connect 15 0 17 1;
#X connect 16 0 10 0;
#X connect 17 0 37 0;
#X connect 18 0 36 0;
#X connect 19 0 36 0;
#X connect 20 0 36 0;
#X connect 21 0 36 0;
#X connect 22 0 36 0;
#X connect 23 0 36 0;
#X connect 24 0 36 0;
#X connect 25 0 36 0;
#X connect 26 0 27 0;
#X connect 26 0 28 0;
#X connect 26 0 29 0;
#X connect 26 0 30 0;
#X connect 26 0 31 0;
#X connect 26 0 32 0;
#X connect 26 0 33 0;
#X connect 26 0 34 0;
#X connect 27 0 18 0;
#X connect 28 0 22 0;
#X connect 29 0 19 0;
#X connect 30 0 23 0;
#X connect 31 0 20 0;
#X connect 32 0 24 0;
#X connect 33 0 21 0;
#X connect 34 0 25 0;
#X connect 35 0 15 0;
#X connect 36 0 17 0;
#X connect 37 0 0 1;
#X connect 37 0 0 0;
#X connect 38 0 39 0;
#X connect 39 0 37 1;
