#N canvas 827 239 527 327 12;
#X obj 81 180 noise~;
#X obj 161 302 *~ 0.5;
#X obj 321 527 dac~;
#X obj 440 171 noise~;
#X obj 440 302 *~ 0.5;
#X obj 294 312 == 0;
#X obj 365 312 == 1;
#X obj 329 97 r button1 @hv_param;
#X obj 161 389 *~;
#X obj 440 389 *~;
#X obj 339 248 tgl 25 0 empty empty empty 17 7 0 10 #e4e4e4 #4d4d4d #373737 0 1;
#X obj 152 103 r knob1 @hv_param;
#X obj 540 97 r knob2 @hv_param;
#X obj 329 465 *~;
#X obj 401 450 r knob3 @hv_param;
#X obj 581 171 + 440;
#X obj 161 248 hip~;
#X obj 440 248 lop~;
#X obj 198 139 * 7500;
#X obj 581 132 * 7500;
#X connect 0 0 16 0;
#X connect 1 0 8 0;
#X connect 3 0 17 0;
#X connect 4 0 9 0;
#X connect 5 0 8 1;
#X connect 6 0 9 1;
#X connect 7 0 10 0;
#X connect 8 0 13 0;
#X connect 9 0 13 0;
#X connect 10 0 5 0;
#X connect 10 0 6 0;
#X connect 11 0 18 0;
#X connect 12 0 19 0;
#X connect 13 0 2 0;
#X connect 13 0 2 1;
#X connect 14 0 13 1;
#X connect 15 0 17 1;
#X connect 16 0 1 0;
#X connect 17 0 4 0;
#X connect 18 0 16 1;
#X connect 19 0 15 0;
